<?xml version="1.0" ?><svg style="enable-background:new 0 0 560 560;" version="1.1" viewBox="0 0 560 560" xml:space="preserve" xmlns="http://www.w3.org/2000/svg" xmlns:xlink="http://www.w3.org/1999/xlink"><g id="icon"><path d="M130.381,560h380.027c5.515,0,9.986-4.471,9.986-9.986l0.003-438.35L408.734,0l-278.35,0   c-5.515,0-9.986,4.471-9.986,9.986l-0.003,540.027C120.395,555.529,124.866,560,130.381,560z" id="bg" style="fill:#0066FF;"/><path d="M422.189,496.728c-4.932,0-10.362-1.407-16.142-4.182c-5.504-2.643-6.213-3.651-9.483-13.492l-0.063-0.188   l-0.087-0.178c-4.204-8.64-11.012-15.828-20.813-21.975c-6.758-4.24-6.119-12.637-3.494-17.345   c2.607-3.514,6.982-4.582,11.617-5.446c1.76-0.328,3.528-0.495,5.258-0.495c7.221,0,14.288,2.841,21.605,8.684   c13.589,10.848,23.389,25.5,29.96,44.794c0.328,0.964,0.401,1.717-1.495,3.333c-1.489,1.269-3.632,2.682-5.731,3.782   C429.889,495.816,426.143,496.728,422.189,496.728C422.189,496.728,422.189,496.728,422.189,496.728z M472.543,529.764   c7.682-6.081,12.603-14.21,16.776-22.09c9.458-17.854,11.142-35.886,5.006-53.594c-4.079-11.771-11.177-22.778-22.337-34.643   c-14.758-15.689-31.813-28.587-48.307-41.061c-5.714-4.32-11.439-8.626-17.165-12.933c-17.425-13.103-35.442-26.652-52.822-40.443   c-12.519-9.935-23.402-21.852-32.348-35.421c-5.271-7.996-6.438-15.927-3.565-24.246c1.662-4.812,2.812-8.841,3.619-12.683   c1.84-8.759-1.131-17.478-7.277-21.917c-14.727,13.332-24.34,25.001-31.167,37.83c-12.494,23.477-9.513,44.656,8.86,62.948   c8.45,8.413,17.077,15.246,25.642,20.311c13.225,7.819,27.104,15.111,40.526,22.164c5.564,2.924,11.317,5.946,16.953,8.97   c5.333,2.86,10.796,5.716,16.078,8.478c12.043,6.295,24.496,12.805,36.393,19.878c22.235,13.222,34.15,30.06,36.425,51.478   c1.432,13.493-2.455,23.54-11.882,30.716c-5.313,4.045-11.143,5.107-15.826,5.962l-0.866,0.159   c-2.933,0.543-6.93,0.842-11.255,0.842c-7.515,0-15.024-0.874-20.089-2.337c-3.598-1.039-12.629-3.854-18.77-7.526   c-19.884-11.894-27.508-29.102-22.657-51.161c0.438-1.941,0.83-3.528,1.372-5.505c-2.041,0.376-3.503,0.836-5.187,1.366   l-1.162,0.363c-6.943,2.14-10.722,8.065-14.722,14.34l-0.254,0.398c-1.48,2.321-2.357,5.409-2.234,7.867   c0.578,11.472,4.948,22.596,13.361,34.008c21.789,29.56,49.392,44.889,84.385,46.862c1.513,0.085,3.005,0.129,4.437,0.129   C454.629,539.273,464.461,536.163,472.543,529.764z M371.342,535.437c3.411,0,6.757-0.249,10.002-0.743   c-10.363-7.049-19.575-16.288-28.776-28.827l-0.71-0.968c-8.343-11.37-16.97-23.128-26.307-33.871   c-8.735-10.048-18.97-15.143-30.418-15.143c-1.918,0-3.901,0.144-5.895,0.427c-6.914,0.983-13.511,3.394-21.383,7.883   c1.653,0.721,3.463,1.319,5.834,1.724c2.795,0.475,5.762,1.025,8.521,1.826c4.361,1.266,8.248,3.421,11.884,6.587   c6.018,5.241,9.86,9.812,13.261,15.777c3.945,6.921,8.598,13.717,13.098,20.289l0.5,0.731   c10.419,15.22,29.255,24.307,50.386,24.308C371.34,535.437,371.34,535.437,371.342,535.437z M226.455,543.569   c7.554,0,13.02-1.299,18.593-7.939c3.92-4.655,6.712-9.483,9.668-14.594c1.367-2.364,2.781-4.809,4.309-7.221   c6.805-10.74,13.49-17.62,21.674-22.309c2.479-1.42,4.504-2.787,6.188-4.178c2.864-2.366,3.105-3.702,1.174-6.499   c-1.873-2.712-3.56-4.847-8.225-7.629c-0.993-0.593-4.029-1.386-5.773-1.386c-0.237,0-0.362,0.016-0.404,0.022   c-3.387,0.54-4.909,1.009-8.703,2.448c-11.312,4.76-16.644,9.437-21.928,19.224c-1.437,2.661-2.794,5.458-4.106,8.164   c-0.69,1.422-1.38,2.844-2.085,4.257l-0.716,1.439c-1.116,2.246-2.27,4.568-3.501,6.829c-0.64,1.175-1.97,3.618-4.92,3.618   c-1.02,0-1.992-0.3-3.066-0.663c-9.605-3.244-19.768-4.82-31.07-4.82c-9.525,0-19.82,1.14-31.475,3.485l-0.865,0.173   c-4.944,0.987-7.452,1.488-10.488,4.602c0.32,0.023,0.647,0.05,0.986,0.081c0.704,0.066,7.171,0.657,7.823,0.701   c24.762,2.143,42.188,8.376,60.15,21.515l0.195,0.144c0.169,0.125,0.404,0.3,0.565,0.4l1.404,0.041   c1.601,0.048,3.113,0.094,4.594,0.094C226.454,543.569,226.454,543.569,226.455,543.569z M494.613,419.927   c-5.962-15.399-14.835-30.878-27.925-48.71c-9.655-13.152-19.571-27.618-26.694-44.265c-4.062-9.491-5.522-17.732-4.6-25.935   c0.652-5.799,1.202-11.458,0.769-16.934c-0.578-7.296-2.549-12.832-6.155-17.204c-5.771,4.088-10.157,9.838-14.022,18.307   c-6.356,13.926-5.485,28.546,2.739,46.009c8.268,17.552,20.665,32.445,32.79,45.881c24.572,26.162,35.356,39.872,46.753,64.513   c0.962,1.53,2.013,3.018,3.121,4.525C500.655,436.774,497.765,428.07,494.613,419.927z M472.981,272.629   c2.191-12.144,2.384-22.208,0.918-31.619c-3.29-21.106-12.531-36.305-28.251-46.464c-8.005-5.173-17.103-7.582-28.629-7.582   c-3.87,0-7.708,0.286-11.816,0.685c-0.065,0.006-2.706,0.291-3.044,1.165c-0.166,0.429,0.643,1.632,1.277,2.221   c1.357,1.257,3.374,2.206,5.378,3.029c2.935,1.206,8.051,2.291,10.432,2.635c3.523,0.508,8.634,1.669,12.002,2.696   c5.04,1.537,3.208,5.083,1.211,7.128c-3.065,3.137-5.569,4.58-10.02,4.58c-1.812,0-3.745-0.319-6.086-1.005   c-7.58-2.221-15.146-4.833-22.463-7.359l-3.803-1.311c-4.541-1.561-9.228-2.353-13.929-2.353c-2.086,0-5.154,0.117-7.259,0.426   c-3.475,0.509-3.768,1.084-3.715,1.312c0.157,0.674,1.138,2.536,3.188,3.875c4.208,2.75,8.444,4.577,10.75,5.438   c15.792,5.896,13.232,9.562,9.792,11.312c-3.962,2.015-10.583,3.083-20.796,0.806c-7.232-1.613-14.335-4.124-21.275-6.261   c-2.751-0.848-5.502-1.695-8.258-2.526c-4.113-1.241-8.067-1.87-11.753-1.87c-4.235,0-8.168,0.786-12.021,2.403   c-1.82,0.764-2.42,1.453-2.486,1.74c-0.066,0.282,0.161,1.148,1.431,2.611c1.381,1.593,2.992,3.222,4.788,4.844   c9.146,8.26,20.642,13.588,37.271,17.277c18.675,4.143,38.129,4.869,56.942,5.597c7.657,0.296,10.627,1.708,12.977,3.811   c4.825,4.316,17.085,16.646,18.685,18.231c6.143,6.09,13.41,9.05,22.217,9.05C471.665,277.15,472.249,276.687,472.981,272.629z    M444.249,252.104c-2.417-4.25-1.144-4.973,3.125-3.917c3.284,0.813,9.792,4.083,10.625,9.083c0.489,2.935,0.6,4.804-3.085,3.59   C449.332,259.021,446.197,255.531,444.249,252.104z" id="snake"/><path d="M408.734,0l111.664,111.664h-96.507c-8.371,0-15.157-6.786-15.157-15.157V0z" id="flap"/><path d="M377.617,164.117h-346c-3.866,0-7-3.134-7-7v-126c0-3.866,3.134-7,7-7h346c3.866,0,7,3.134,7,7v126   C384.617,160.983,381.483,164.117,377.617,164.117z"/><g id="text"><path d="M157.72,138.79c-3.92,1.96-12.74,4.06-24.22,4.06c-32.62,0-49.42-20.3-49.42-47.18    c0-32.2,22.96-50.12,51.52-50.12c11.06,0,19.46,2.24,23.24,4.2l-4.34,16.94c-4.34-1.82-10.36-3.5-17.92-3.5    c-16.94,0-30.1,10.22-30.1,31.22c0,18.9,11.2,30.8,30.24,30.8c6.44,0,13.58-1.4,17.78-3.08L157.72,138.79z" style="fill:#0066FF;"/><path d="M171.718,48.35c5.6-1.12,16.94-1.96,27.58-1.96c13.02,0,21,1.26,27.86,5.32    c6.58,3.5,11.34,9.94,11.34,18.48c0,8.4-4.9,16.24-15.54,20.16v0.28c10.78,2.94,18.76,11.06,18.76,23.24    c0,8.54-3.92,15.26-9.8,20.02c-6.86,5.46-18.34,8.54-37.1,8.54c-10.5,0-18.34-0.7-23.1-1.4V48.35z M192.858,84.47h7    c11.2,0,17.22-4.62,17.22-11.62c0-7.14-5.46-10.92-15.12-10.92c-4.62,0-7.28,0.28-9.1,0.56V84.47z M192.858,126.33    c2.1,0.28,4.62,0.28,8.26,0.28c9.66,0,18.2-3.64,18.2-13.58c0-9.52-8.54-13.3-19.18-13.3h-7.28V126.33z" style="fill:#0066FF;"/><path d="M256.276,48.35c6.86-1.12,17.08-1.96,28.42-1.96c14,0,23.8,2.1,30.52,7.42    c5.6,4.48,8.68,11.06,8.68,19.74c0,12.04-8.54,20.3-16.66,23.24v0.42c6.58,2.66,10.221,8.96,12.601,17.64    c2.939,10.64,5.88,22.96,7.699,26.6h-21.84c-1.54-2.66-3.779-10.36-6.58-21.98c-2.52-11.76-6.58-14.98-15.26-15.12h-6.44v37.1    h-21.14V48.35z M277.417,88.95h8.4c10.64,0,16.94-5.32,16.94-13.58c0-8.68-5.88-13.02-15.68-13.16c-5.18,0-8.12,0.42-9.66,0.7    V88.95z" style="fill:#0066FF;"/></g></g></svg>